<?xml version="1.0" standalone="no"?>
<!DOCTYPE svg PUBLIC "-//W3C//DTD SVG 20010904//EN"
 "http://www.w3.org/TR/2001/REC-SVG-20010904/DTD/svg10.dtd">
<svg version="1.0" xmlns="http://www.w3.org/2000/svg"
 width="1024.000000pt" height="1024.000000pt" viewBox="0 0 1024.000000 1024.000000"
 preserveAspectRatio="xMidYMid meet">

<g transform="translate(0.000000,1024.000000) scale(0.100000,-0.100000)"
fill="#000000" stroke="none">
<path d="M4870 9324 c-278 -20 -596 -65 -770 -110 -147 -39 -384 -119 -547
-185 -301 -123 -700 -344 -928 -515 -305 -229 -641 -560 -865 -854 -365 -481
-678 -1176 -774 -1721 -95 -536 -95 -1103 0 -1626 26 -147 42 -211 43 -180 1
9 5 17 11 17 5 0 7 6 4 13 -8 22 -11 87 -3 87 4 0 5 20 3 45 -3 32 -1 45 8 45
9 0 12 15 11 50 -2 36 1 50 11 50 11 0 13 17 11 75 -2 67 0 75 16 75 12 0 19
7 19 20 0 11 4 20 9 20 5 0 7 9 4 20 -5 18 0 20 41 20 44 0 46 1 40 25 l-6 25
524 0 525 0 6 -67 c4 -38 8 -153 9 -258 1 -104 5 393 8 1105 6 1304 7 1350 40
1338 22 -8 1720 -1703 1720 -1717 0 -9 -85 -102 -189 -207 -105 -106 -187
-195 -184 -198 3 -3 11 -2 17 2 6 4 26 6 44 3 l34 -6 -21 -24 c-12 -13 -19
-27 -16 -30 6 -5 37 25 290 277 57 56 107 102 112 102 5 0 93 -83 195 -184
103 -101 189 -181 192 -178 3 3 6 0 6 -6 0 -7 5 -12 12 -12 6 0 -1 14 -17 30
l-29 30 45 0 c36 0 49 -5 72 -30 29 -31 47 -38 47 -19 0 5 -3 8 -7 6 -5 -3
-19 9 -33 25 -14 17 -515 523 -1115 1125 -600 602 -1091 1098 -1093 1102 -11
30 56 31 2723 31 2674 0 2733 -1 2723 -32 -2 -4 -498 -503 -1103 -1108 -604
-605 -1095 -1100 -1090 -1101 6 0 0 -4 -12 -9 -13 -5 -23 -17 -23 -25 0 -9 -4
-13 -10 -10 -5 3 -10 1 -10 -4 0 -18 13 -12 50 22 30 28 40 32 70 28 l34 -6
-37 -37 c-20 -21 -37 -42 -37 -48 0 -11 131 113 336 318 51 50 96 92 101 92 5
0 93 -83 195 -184 103 -101 189 -181 192 -178 3 3 6 0 6 -6 0 -7 5 -12 12 -12
6 0 -1 14 -17 30 l-29 30 42 0 c33 0 49 -6 74 -30 17 -16 35 -30 40 -30 11 0
-14 26 -244 260 -104 105 -188 194 -188 199 0 13 1730 1736 1736 1728 22 -30
24 -135 31 -1343 5 -785 10 -1198 14 -1044 3 140 7 256 7 258 1 1 236 2 523 2
l521 0 -6 -25 c-6 -24 -4 -25 40 -25 41 0 46 -2 41 -20 -3 -11 -1 -20 4 -20 5
0 9 -9 9 -20 0 -13 7 -20 19 -20 16 0 18 -8 16 -75 -2 -58 0 -75 11 -75 10 0
13 -14 11 -50 -1 -35 2 -50 11 -50 9 0 11 -13 8 -45 -2 -25 -1 -45 3 -45 8 0
5 -65 -3 -87 -3 -7 -1 -13 4 -13 5 0 10 -8 12 -17 5 -23 54 230 73 372 39 304
51 596 36 845 -30 481 -92 799 -229 1170 -277 752 -690 1340 -1303 1856 -371
313 -890 595 -1402 763 -272 89 -478 132 -797 166 -138 15 -603 27 -720 19z"/>
<path d="M3645 4700 c3 -5 -1 -10 -9 -10 -17 0 -31 -18 -22 -27 7 -7 46 26 46
39 0 4 -5 8 -11 8 -5 0 -7 -4 -4 -10z"/>
<path d="M4657 4652 c-2 -4 11 -22 29 -39 18 -18 35 -29 37 -25 2 4 -11 22
-29 39 -18 18 -35 29 -37 25z"/>
<path d="M5542 4614 c-23 -24 -39 -44 -36 -44 12 0 93 79 86 83 -4 2 -26 -16
-50 -39z"/>
<path d="M3542 4604 c-18 -19 -29 -34 -24 -34 10 0 67 58 61 63 -2 2 -19 -11
-37 -29z"/>
<path d="M6683 4607 c12 -13 24 -22 26 -20 6 4 -30 43 -40 43 -5 0 2 -10 14
-23z"/>
<path d="M4622 4556 c7 -8 15 -12 17 -11 5 6 -10 25 -20 25 -5 0 -4 -6 3 -14z"/>
<path d="M6620 4550 c13 -11 25 -20 28 -20 3 0 -3 9 -13 20 -10 11 -23 20 -28
20 -6 0 0 -9 13 -20z"/>
<path d="M5028 4403 c6 -2 18 -2 25 0 6 3 1 5 -13 5 -14 0 -19 -2 -12 -5z"/>
<path d="M5188 4403 c6 -2 18 -2 25 0 6 3 1 5 -13 5 -14 0 -19 -2 -12 -5z"/>
</g>
</svg>
