<?xml version="1.0" standalone="no"?>
<!DOCTYPE svg PUBLIC "-//W3C//DTD SVG 20010904//EN"
 "http://www.w3.org/TR/2001/REC-SVG-20010904/DTD/svg10.dtd">
<svg version="1.0" xmlns="http://www.w3.org/2000/svg"
 width="208.000000pt" height="242.000000pt" viewBox="0 0 208.000000 242.000000"
 preserveAspectRatio="xMidYMid meet">

<g transform="translate(0.000000,242.000000) scale(0.100000,-0.100000)"
fill="#000000" stroke="none">
<path d="M715 2310 c-109 -23 -194 -71 -273 -154 -209 -221 -162 -579 99 -747
42 -27 49 -36 49 -64 0 -32 -2 -34 -72 -55 -333 -100 -488 -372 -488 -857 0
-116 1 -123 25 -152 80 -94 374 -155 821 -170 l192 -6 -32 31 c-37 37 -151
236 -161 282 -9 43 24 111 65 135 27 16 30 23 30 65 0 42 -3 49 -31 64 -40 23
-73 97 -63 141 8 40 117 232 152 270 41 43 90 53 150 32 49 -18 50 -18 86 4
21 13 36 31 36 42 0 34 -122 97 -247 129 -39 10 -43 13 -43 43 0 28 7 36 56
67 160 100 253 301 224 486 -32 204 -186 367 -388 410 -73 15 -126 16 -187 4z"/>
<path d="M1400 1117 l0 -63 -64 -28 c-35 -15 -82 -42 -103 -61 l-38 -33 -53
30 c-30 17 -57 26 -61 22 -5 -5 -31 -48 -59 -96 l-51 -87 51 -29 51 -28 1
-126 1 -125 -52 -29 -51 -29 56 -96 57 -97 52 30 51 29 64 -43 c35 -24 82 -50
106 -57 l42 -14 0 -64 0 -63 110 0 110 0 0 60 0 60 68 30 c37 17 84 45 106 62
l38 31 54 -29 c29 -16 55 -26 57 -24 8 8 107 178 107 183 0 3 -24 19 -53 35
l-53 30 10 61 c6 41 6 81 0 121 l-10 60 54 31 53 30 -37 66 c-65 117 -69 123
-77 123 -4 0 -28 -13 -53 -29 l-47 -29 -58 43 c-33 24 -82 51 -109 60 l-50 17
0 64 0 64 -110 0 -110 0 0 -63z m198 -302 c143 -60 173 -250 56 -354 -79 -69
-175 -76 -262 -17 -137 92 -119 291 33 370 38 20 125 20 173 1z"/>
</g>
</svg>
